<svg width="81" height="31" viewBox="0 0 81 31" fill="none" xmlns="http://www.w3.org/2000/svg">
<path d="M35.3234 14.28C35.3234 15.645 41.7134 13.845 41.7134 17.76C41.7134 19.575 39.8684 21 36.3434 21C34.5134 21 32.6084 20.58 31.5434 19.98L32.6834 16.83C33.5684 17.55 35.1434 18.225 36.4634 18.225C37.7534 18.225 38.1734 17.97 38.1734 17.55C38.1734 16.215 31.7684 18.03 31.7684 14.085C31.7684 12.225 33.6434 10.8 37.0484 10.8C38.5784 10.8 40.2584 11.1 41.3384 11.64L40.1984 14.505C39.1334 13.89 38.0384 13.59 37.0784 13.59C35.7884 13.59 35.3234 13.92 35.3234 14.28ZM50.1705 11.355C51.8205 12.21 52.9605 13.92 52.9605 15.9V21H50.1705V17.295C49.6755 19.845 48.3405 20.73 47.1105 20.94C46.8855 20.985 46.6755 21 46.4655 21C43.3155 21 42.7755 17.925 42.7605 15.945C42.7605 15.93 42.7605 15.915 42.7605 15.9C42.7605 13.92 43.8855 12.21 45.5355 11.355C46.2405 11.01 47.0205 10.8 47.8605 10.8C48.6855 10.8 49.4805 11.01 50.1705 11.355ZM47.8605 18.225C49.1355 18.225 50.1705 17.175 50.1705 15.9C50.1705 14.625 49.1355 13.59 47.8605 13.59C46.5855 13.59 45.5355 14.625 45.5355 15.9C45.5355 17.175 46.5855 18.225 47.8605 18.225ZM54.457 21V6.63H57.232V21H54.457ZM63.5344 10.8C66.1144 10.8 68.2444 12.72 68.5894 15.21C68.6194 15.435 68.6344 15.66 68.6344 15.9C68.6344 16.14 68.6194 16.365 68.5894 16.605H61.3144C61.6144 17.535 62.4994 18.225 63.5344 18.225C64.4494 18.225 65.2444 17.685 65.6194 16.92L68.2294 17.895C67.4494 19.725 65.6344 21 63.5344 21C60.9544 21 58.8244 19.08 58.4794 16.605C58.4494 16.365 58.4344 16.14 58.4344 15.9C58.4344 15.66 58.4494 15.435 58.4794 15.21C58.8244 12.72 60.9544 10.8 63.5344 10.8ZM61.3144 15.21H65.7394C65.4544 14.265 64.5694 13.59 63.5344 13.59C62.4994 13.59 61.6144 14.265 61.3144 15.21ZM73.4679 14.28C73.4679 15.645 79.8579 13.845 79.8579 17.76C79.8579 19.575 78.0129 21 74.4879 21C72.6579 21 70.7529 20.58 69.6879 19.98L70.8279 16.83C71.7129 17.55 73.2879 18.225 74.6079 18.225C75.8979 18.225 76.3179 17.97 76.3179 17.55C76.3179 16.215 69.9129 18.03 69.9129 14.085C69.9129 12.225 71.7879 10.8 75.1929 10.8C76.7229 10.8 78.4029 11.1 79.4829 11.64L78.3429 14.505C77.2779 13.89 76.1829 13.59 75.2229 13.59C73.9329 13.59 73.4679 13.92 73.4679 14.28Z" fill="black"/>
<path d="M28.3532 17.295C29.3732 17.295 30.1982 18.12 30.1982 19.14C30.1982 20.175 29.3732 21 28.3532 21C27.3182 21 26.4932 20.175 26.4932 19.14C26.4932 18.12 27.3182 17.295 28.3532 17.295Z" fill="black"/>
<path d="M17.245 11.25C21.94 11.25 25.12 13.8 25.12 18.705C25.12 23.985 21.61 27 16.315 27C14.41 27 12.475 26.61 11.26 25.89L12.61 22.83C13.57 23.43 15.235 23.76 16.315 23.76C20.065 23.76 21.175 21.84 21.415 19.515C19.555 20.985 18.115 20.97 16.525 20.97C13.42 20.97 10.75 19.245 10.75 16.335C10.75 13.185 13.57 11.25 17.245 11.25ZM17.695 17.73C19.51 17.73 21.07 17.355 21.07 16.2C21.07 15.075 19.585 14.49 17.695 14.49C15.22 14.49 13.99 15.15 13.99 16.335C13.99 17.505 15.775 17.73 17.695 17.73Z" fill="black"/>
<path d="M6.99 14.8H10.35L6.915 19.9L10.35 25H6.99L5.25 22.39L3.495 25H0.15L3.57 19.9L0.15 14.8H3.495L5.25 17.41L6.99 14.8Z" fill="black"/>
</svg>
