<svg width="82" height="32" viewBox="0 0 82 32" fill="none" xmlns="http://www.w3.org/2000/svg">
<path d="M6.99 10.8H10.35L6.915 15.9L10.35 21H6.99L5.25 18.39L3.495 21H0.15L3.57 15.9L0.15 10.8H3.495L5.25 13.41L6.99 10.8ZM29.8561 17.295C30.8761 17.295 31.7011 18.12 31.7011 19.14C31.7011 20.175 30.8761 21 29.8561 21C28.8211 21 27.9961 20.175 27.9961 19.14C27.9961 18.12 28.8211 17.295 29.8561 17.295ZM36.8263 14.28C36.8263 15.645 43.2163 13.845 43.2163 17.76C43.2163 19.575 41.3713 21 37.8463 21C36.0163 21 34.1113 20.58 33.0463 19.98L34.1863 16.83C35.0713 17.55 36.6463 18.225 37.9663 18.225C39.2563 18.225 39.6763 17.97 39.6763 17.55C39.6763 16.215 33.2713 18.03 33.2713 14.085C33.2713 12.225 35.1463 10.8 38.5513 10.8C40.0813 10.8 41.7613 11.1 42.8413 11.64L41.7013 14.505C40.6363 13.89 39.5413 13.59 38.5813 13.59C37.2913 13.59 36.8263 13.92 36.8263 14.28ZM51.6735 11.355C53.3235 12.21 54.4635 13.92 54.4635 15.9V21H51.6735V17.295C51.1785 19.845 49.8435 20.73 48.6135 20.94C48.3885 20.985 48.1785 21 47.9685 21C44.8185 21 44.2785 17.925 44.2635 15.945C44.2635 15.93 44.2635 15.915 44.2635 15.9C44.2635 13.92 45.3885 12.21 47.0385 11.355C47.7435 11.01 48.5235 10.8 49.3635 10.8C50.1885 10.8 50.9835 11.01 51.6735 11.355ZM49.3635 18.225C50.6385 18.225 51.6735 17.175 51.6735 15.9C51.6735 14.625 50.6385 13.59 49.3635 13.59C48.0885 13.59 47.0385 14.625 47.0385 15.9C47.0385 17.175 48.0885 18.225 49.3635 18.225ZM55.96 21V6.63H58.735V21H55.96ZM65.0373 10.8C67.6173 10.8 69.7473 12.72 70.0923 15.21C70.1223 15.435 70.1373 15.66 70.1373 15.9C70.1373 16.14 70.1223 16.365 70.0923 16.605H62.8173C63.1173 17.535 64.0023 18.225 65.0373 18.225C65.9523 18.225 66.7473 17.685 67.1223 16.92L69.7323 17.895C68.9523 19.725 67.1373 21 65.0373 21C62.4573 21 60.3273 19.08 59.9823 16.605C59.9523 16.365 59.9373 16.14 59.9373 15.9C59.9373 15.66 59.9523 15.435 59.9823 15.21C60.3273 12.72 62.4573 10.8 65.0373 10.8ZM62.8173 15.21H67.2423C66.9573 14.265 66.0723 13.59 65.0373 13.59C64.0023 13.59 63.1173 14.265 62.8173 15.21ZM74.9708 14.28C74.9708 15.645 81.3608 13.845 81.3608 17.76C81.3608 19.575 79.5158 21 75.9908 21C74.1608 21 72.2558 20.58 71.1908 19.98L72.3308 16.83C73.2158 17.55 74.7908 18.225 76.1108 18.225C77.4008 18.225 77.8208 17.97 77.8208 17.55C77.8208 16.215 71.4158 18.03 71.4158 14.085C71.4158 12.225 73.2908 10.8 76.6958 10.8C78.2258 10.8 79.9058 11.1 80.9858 11.64L79.8458 14.505C78.7808 13.89 77.6858 13.59 76.7258 13.59C75.4358 13.59 74.9708 13.92 74.9708 14.28Z" fill="black"/>
<path d="M18.245 12.25C22.94 12.25 26.12 14.8 26.12 19.705C26.12 24.985 22.61 28 17.315 28C15.41 28 13.475 27.61 12.26 26.89L13.61 23.83C14.57 24.43 16.235 24.76 17.315 24.76C21.065 24.76 22.175 22.84 22.415 20.515C20.555 21.985 19.115 21.97 17.525 21.97C14.42 21.97 11.75 20.245 11.75 17.335C11.75 14.185 14.57 12.25 18.245 12.25ZM18.695 18.73C20.51 18.73 22.07 18.355 22.07 17.2C22.07 16.075 20.585 15.49 18.695 15.49C16.22 15.49 14.99 16.15 14.99 17.335C14.99 18.505 16.775 18.73 18.695 18.73Z" fill="black"/>
</svg>
