<svg width="26" height="27" viewBox="0 0 26 27" fill="none" xmlns="http://www.w3.org/2000/svg">
<path d="M17.245 7.25C21.94 7.25 25.12 9.8 25.12 14.705C25.12 19.985 21.61 23 16.315 23C14.41 23 12.475 22.61 11.26 21.89L12.61 18.83C13.57 19.43 15.235 19.76 16.315 19.76C20.065 19.76 21.175 17.84 21.415 15.515C19.555 16.985 18.115 16.97 16.525 16.97C13.42 16.97 10.75 15.245 10.75 12.335C10.75 9.185 13.57 7.25 17.245 7.25ZM17.695 13.73C19.51 13.73 21.07 13.355 21.07 12.2C21.07 11.075 19.585 10.49 17.695 10.49C15.22 10.49 13.99 11.15 13.99 12.335C13.99 13.505 15.775 13.73 17.695 13.73Z" fill="black"/>
<path d="M6.99 10.8H10.35L6.915 15.9L10.35 21H6.99L5.25 18.39L3.495 21H0.15L3.57 15.9L0.15 10.8H3.495L5.25 13.41L6.99 10.8Z" fill="black"/>
</svg>
